<svg  viewBox="0 0 505.2 81.801" xmlns="http://www.w3.org/2000/svg">
  <g id="svgGroup" stroke-linecap="round" fill-rule="evenodd" font-size="9pt" stroke="#1c1c1c" stroke-width="0.25mm" fill="#000" style="stroke:#1c1c1c;stroke-width:0.25mm;fill:#000">
    <path d="M 60.7 80 L 8.1 80 L 6.3 13.5 L 2 13.5 L 0 4.8 L 58.8 1 L 58.8 13.5 L 20.9 13.5 L 20.9 35.8 L 53.8 32.8 L 53.8 46 L 20.9 46 L 20.9 69.5 L 60.7 66.5 L 60.7 80 Z M 254.3 27 L 247.7 27 A 40.658 40.658 0 0 0 247.179 23.566 Q 246.856 21.94 246.416 20.584 A 17.115 17.115 0 0 0 245.55 18.4 A 20.674 20.674 0 0 0 244.443 16.389 Q 243.347 14.65 242.1 13.6 Q 239.7 11.5 236.65 10.55 Q 234.311 9.822 231.062 9.652 A 39.526 39.526 0 0 0 229 9.6 A 18.388 18.388 0 0 0 225.218 9.964 Q 221.543 10.737 219.3 13.15 Q 216 16.7 216 21.5 A 6.398 6.398 0 0 0 216.997 24.877 Q 217.772 26.147 219.15 27.35 A 19.219 19.219 0 0 0 222.554 29.697 Q 224.26 30.634 226.319 31.391 A 34.767 34.767 0 0 0 227.5 31.8 L 239.5 35.7 A 49.61 49.61 0 0 1 245.891 38.231 Q 250.731 40.575 253.95 43.7 A 16.367 16.367 0 0 1 258.435 51.748 Q 259.058 54.296 259.097 57.298 A 30.991 30.991 0 0 1 259.1 57.7 Q 259.1 69.1 251.65 75.45 A 24.395 24.395 0 0 1 242.984 80.099 Q 239.413 81.215 235.11 81.599 A 53.062 53.062 0 0 1 230.4 81.8 A 41.013 41.013 0 0 1 221.625 80.91 A 28.889 28.889 0 0 1 210.95 76.3 Q 203.2 70.8 200.2 61.7 L 207.6 56.8 Q 210.5 63.5 216.45 67.45 A 23.675 23.675 0 0 0 227.175 71.231 A 30.035 30.035 0 0 0 230.4 71.4 A 21.233 21.233 0 0 0 235.134 70.901 A 14.561 14.561 0 0 0 241.4 67.85 A 12.552 12.552 0 0 0 244.119 64.71 A 10.55 10.55 0 0 0 245.6 59.2 A 8.963 8.963 0 0 0 242.824 52.671 A 12.489 12.489 0 0 0 242.1 52 Q 239.379 49.668 235.027 47.819 A 46.486 46.486 0 0 0 232.4 46.8 L 221.1 42.9 A 52.763 52.763 0 0 1 215.829 40.763 Q 213.203 39.518 211.151 38.108 A 21.508 21.508 0 0 1 207.6 35.1 Q 203.683 30.91 203.334 23.649 A 30.198 30.198 0 0 1 203.3 22.2 Q 203.3 16.1 206.4 11.1 Q 209.5 6.1 215.45 3.1 A 27.006 27.006 0 0 1 222.661 0.716 Q 225.939 0.1 229.7 0.1 Q 239.1 0.1 246.4 3.2 A 35.636 35.636 0 0 1 250.958 5.508 Q 253.341 6.954 255.101 8.64 A 17.723 17.723 0 0 1 257.1 10.9 L 254.3 27 Z M 194.4 77.9 L 184.8 81 A 20.909 20.909 0 0 1 180.989 78.398 Q 178.515 76.241 177.305 73.525 A 12.831 12.831 0 0 1 176.9 72.5 A 11.141 11.141 0 0 1 174.296 75.767 A 14.578 14.578 0 0 1 172.5 77.1 A 23.769 23.769 0 0 1 167.805 79.372 A 28.654 28.654 0 0 1 165.65 80.05 Q 161.8 81.1 157.8 81.1 A 20.279 20.279 0 0 1 151.959 80.3 A 15.601 15.601 0 0 1 144.75 75.75 A 20.424 20.424 0 0 1 139.833 65.681 A 27.073 27.073 0 0 1 139.4 62.2 L 137.4 22.8 L 151.6 24.5 L 151.6 59.9 A 15.367 15.367 0 0 0 151.864 62.843 Q 152.194 64.537 152.94 65.846 A 7.739 7.739 0 0 0 154.3 67.6 A 9.019 9.019 0 0 0 158.662 69.893 A 13.293 13.293 0 0 0 161.6 70.2 Q 165.9 70.2 169.45 67.9 A 11.386 11.386 0 0 0 174.034 62.015 A 14.672 14.672 0 0 0 174.3 61.2 L 174.3 22.8 L 188.5 24.5 L 186.8 62.2 L 186.8 62.8 Q 186.8 66.5 188.75 70.5 A 23.602 23.602 0 0 0 192.432 75.912 A 28.894 28.894 0 0 0 194.4 77.9 Z M 410.7 77.9 L 401.1 81 A 20.909 20.909 0 0 1 397.289 78.398 Q 394.815 76.241 393.605 73.525 A 12.831 12.831 0 0 1 393.2 72.5 A 11.141 11.141 0 0 1 390.596 75.767 A 14.578 14.578 0 0 1 388.8 77.1 A 23.769 23.769 0 0 1 384.105 79.372 A 28.654 28.654 0 0 1 381.95 80.05 Q 378.1 81.1 374.1 81.1 A 20.279 20.279 0 0 1 368.259 80.3 A 15.601 15.601 0 0 1 361.05 75.75 A 20.424 20.424 0 0 1 356.133 65.681 A 27.073 27.073 0 0 1 355.7 62.2 L 353.7 22.8 L 367.9 24.5 L 367.9 59.9 A 15.367 15.367 0 0 0 368.164 62.843 Q 368.494 64.537 369.24 65.846 A 7.739 7.739 0 0 0 370.6 67.6 A 9.019 9.019 0 0 0 374.962 69.893 A 13.293 13.293 0 0 0 377.9 70.2 Q 382.2 70.2 385.75 67.9 A 11.386 11.386 0 0 0 390.334 62.015 A 14.672 14.672 0 0 0 390.6 61.2 L 390.6 22.8 L 404.8 24.5 L 403.1 62.2 L 403.1 62.8 Q 403.1 66.5 405.05 70.5 A 23.602 23.602 0 0 0 408.732 75.912 A 28.894 28.894 0 0 0 410.7 77.9 Z M 127.2 77.9 L 117.6 81 A 28.538 28.538 0 0 1 115.887 79.521 Q 114.594 78.306 113.75 77.15 A 14.946 14.946 0 0 1 112.374 74.831 A 19.786 19.786 0 0 1 111.5 72.7 Q 108.4 77.4 103.85 79.25 Q 99.3 81.1 94.4 81.1 A 28.813 28.813 0 0 1 87.003 80.183 A 24.247 24.247 0 0 1 81.25 77.85 Q 75.5 74.6 72.2 68.15 Q 68.9 61.7 68.9 52.3 A 42.719 42.719 0 0 1 69.456 45.214 Q 70.295 40.23 72.4 36.35 A 26.305 26.305 0 0 1 76.901 30.237 A 22.622 22.622 0 0 1 81.65 26.6 Q 87.4 23.3 94.2 23.3 Q 99.5 23.3 103.1 24.7 A 12.974 12.974 0 0 1 108.203 28.337 A 16.334 16.334 0 0 1 109.2 29.6 L 109.2 0 L 123.4 2 L 121.4 63.6 Q 121.3 67.5 122.85 71.3 Q 124.4 75.1 127.2 77.9 Z M 463.1 65 L 466.4 72 Q 463.6 76 457.9 78.55 A 29.12 29.12 0 0 1 449.564 80.825 A 36.856 36.856 0 0 1 445 81.1 Q 437.3 81.1 430.7 77.85 Q 424.1 74.6 420.05 68.2 Q 416.229 62.163 416.013 53.277 A 44.244 44.244 0 0 1 416 52.2 A 36.38 36.38 0 0 1 416.721 44.776 A 26.545 26.545 0 0 1 419.8 36.65 Q 423.6 30.2 430.15 26.75 Q 436.7 23.3 445 23.3 A 34.763 34.763 0 0 1 452.551 24.093 A 29.504 29.504 0 0 1 457.25 25.55 Q 462.8 27.8 465.9 31.7 L 462.5 39.3 A 14.895 14.895 0 0 0 459.717 37.06 Q 458.347 36.192 456.66 35.467 A 28.022 28.022 0 0 0 455.5 35 A 27.441 27.441 0 0 0 450.899 33.686 A 21.527 21.527 0 0 0 446.9 33.3 Q 442.2 33.3 438.3 35.5 Q 434.4 37.7 432.15 41.95 A 18.643 18.643 0 0 0 430.362 47.122 Q 429.9 49.481 429.9 52.2 Q 429.9 59.216 432.878 63.74 A 14.957 14.957 0 0 0 434.8 66.1 A 16.548 16.548 0 0 0 445.987 70.967 A 22.021 22.021 0 0 0 447.2 71 Q 452.1 71 456.35 69.4 A 19.938 19.938 0 0 0 459.842 67.704 A 14.751 14.751 0 0 0 463.1 65 Z M 300.3 73 L 298.3 81.1 A 46.298 46.298 0 0 1 292.358 80.746 Q 285.917 79.91 282.226 77.096 A 12.892 12.892 0 0 1 281.5 76.5 A 14.844 14.844 0 0 1 276.914 68.697 Q 276.319 66.269 276.301 63.386 A 28.894 28.894 0 0 1 276.3 63.2 L 276.3 33.8 L 268.7 33.8 L 266.7 26.1 L 276.3 25.1 L 276.3 7.1 L 290.4 9.1 L 289.9 23.7 L 299.9 22.7 L 299.9 33.8 L 289.5 33.8 L 288.5 61.4 L 288.5 62.4 A 15.219 15.219 0 0 0 288.815 65.592 Q 289.256 67.646 290.312 69.204 A 8.928 8.928 0 0 0 291.05 70.15 A 7.091 7.091 0 0 0 293.611 71.914 Q 295.866 72.873 299.353 72.985 A 29.443 29.443 0 0 0 300.3 73 Z M 505.2 73 L 503.2 81.1 A 46.298 46.298 0 0 1 497.258 80.746 Q 490.817 79.91 487.126 77.096 A 12.892 12.892 0 0 1 486.4 76.5 A 14.844 14.844 0 0 1 481.814 68.697 Q 481.219 66.269 481.201 63.386 A 28.894 28.894 0 0 1 481.2 63.2 L 481.2 33.8 L 473.6 33.8 L 471.6 26.1 L 481.2 25.1 L 481.2 7.1 L 495.3 9.1 L 494.8 23.7 L 504.8 22.7 L 504.8 33.8 L 494.4 33.8 L 493.4 61.4 L 493.4 62.4 A 15.219 15.219 0 0 0 493.715 65.592 Q 494.156 67.646 495.212 69.204 A 8.928 8.928 0 0 0 495.95 70.15 A 7.091 7.091 0 0 0 498.511 71.914 Q 500.766 72.873 504.253 72.985 A 29.443 29.443 0 0 0 505.2 73 Z M 325.8 80 L 313.6 81.4 L 311.6 22.8 L 325.8 24.5 L 325.8 30.2 Q 327.637 27.88 329.521 26.401 A 16.445 16.445 0 0 1 329.65 26.3 A 10.916 10.916 0 0 1 332.018 24.932 Q 333.12 24.46 334.425 24.142 A 18.425 18.425 0 0 1 334.6 24.1 Q 336.616 23.63 339.489 23.43 A 61.835 61.835 0 0 1 342.5 23.3 L 344.8 35.5 A 39.962 39.962 0 0 0 341.744 35.06 Q 340.192 34.9 338.8 34.9 Q 329.048 34.9 326.008 42.452 A 15.097 15.097 0 0 0 325.8 43 L 325.8 80 Z M 109.6 58.4 L 109.6 41.1 Q 108 37.9 104.9 35.45 A 11.334 11.334 0 0 0 98.874 33.072 A 14.691 14.691 0 0 0 97.4 33 A 15.889 15.889 0 0 0 90.451 34.626 A 18.58 18.58 0 0 0 90 34.85 A 13.037 13.037 0 0 0 85.901 38.205 A 17.866 17.866 0 0 0 84.05 40.95 A 16.648 16.648 0 0 0 82.528 44.89 Q 81.7 48.125 81.7 52.4 A 36.413 36.413 0 0 0 81.942 56.742 Q 82.438 60.862 83.95 63.65 A 15.783 15.783 0 0 0 86.276 66.928 A 12.334 12.334 0 0 0 89.85 69.6 Q 93.5 71.4 97.5 71.4 A 11.287 11.287 0 0 0 101.844 70.573 A 10.768 10.768 0 0 0 103.6 69.65 A 12.917 12.917 0 0 0 107.74 65.27 A 15.158 15.158 0 0 0 107.95 64.9 Q 109.6 61.9 109.6 58.4 Z" vector-effect="non-scaling-stroke" />
  </g>
</svg>