<!--?xml version="1.0" standalone="no"?-->              <svg id="sw-js-blob-svg" viewBox="0 0 100 100" xmlns="http://www.w3.org/2000/svg">                    <defs>                         <linearGradient id="sw-gradient" x1="0" x2="1" y1="1" y2="0">                            <stop id="stop1" stop-color="rgba(248, 117, 55, 1)" offset="0%"></stop>                            <stop id="stop2" stop-color="rgba(251, 168, 31, 1)" offset="100%"></stop>                        </linearGradient>                    </defs>                <path fill="url(#sw-gradient)" d="M24.8,-32.7C31.5,-29.2,36,-21.2,39.3,-12.4C42.6,-3.7,44.6,5.7,40.3,11.3C36,16.9,25.4,18.6,17.6,21.3C9.8,24,4.9,27.7,-2.4,31C-9.8,34.4,-19.6,37.4,-25.6,34.1C-31.6,30.8,-33.9,21.3,-34.3,12.9C-34.6,4.4,-33,-2.9,-31.4,-11C-29.8,-19,-28.2,-27.9,-23,-31.9C-17.8,-35.9,-8.9,-35.2,0.1,-35.3C9,-35.4,18,-36.3,24.8,-32.7Z" width="100%" height="100%" transform="translate(50 50)" stroke-width="0" style="transition: all 0.3s ease 0s;"></path>              </svg>